<?xml version="1.0" encoding="UTF-8"?>
<svg xmlns="http://www.w3.org/2000/svg" xmlns:xlink="http://www.w3.org/1999/xlink" width="40px" height="40px" viewBox="0 0 40 40" version="1.1">
<g id="surface1">
<path style="fill-rule:evenodd;fill:rgb(100%,86.666667%,58.431375%);fill-opacity:1;stroke-width:8;stroke-linecap:round;stroke-linejoin:round;stroke:rgb(0%,0%,0%);stroke-opacity:1;stroke-miterlimit:10;" d="M 270 157.998047 C 270 91.728516 216.269531 37.998047 150 37.998047 C 83.730469 37.998047 30 91.728516 30 157.998047 C 30 224.267578 83.730469 277.998047 150 277.998047 C 216.269531 277.998047 270 224.267578 270 157.998047 Z M 270 157.998047 " transform="matrix(0.133333,0,0,0.133333,0,0)"/>
<path style="fill-rule:evenodd;fill:rgb(60.000002%,47.058824%,26.274511%);fill-opacity:1;stroke-width:8;stroke-linecap:round;stroke-linejoin:round;stroke:rgb(0%,0%,0%);stroke-opacity:1;stroke-miterlimit:10;" d="M 163.125 119.765625 C 159.023438 118.623047 154.599609 118.007812 150 118.007812 C 144.902344 118.007812 140.009766 118.769531 135.527344 120.175781 C 133.183594 115.283203 126.826172 102.919922 119.882812 97.998047 C 119.882812 97.998047 112.617188 117.099609 114.228516 135.644531 C 111.533203 139.951172 110.009766 144.84375 110.009766 150 C 110.009766 164.736328 122.431641 177.128906 139.365234 180.849609 C 122.431641 190.166016 110.009766 221.191406 110.009766 257.988281 C 110.009766 262.558594 110.185547 267.011719 110.566406 271.376953 C 122.900391 275.654297 136.171875 277.998047 150 277.998047 C 163.828125 277.998047 177.099609 275.654297 189.433594 271.376953 C 189.814453 267.011719 189.990234 262.558594 189.990234 257.988281 C 189.990234 221.191406 177.568359 190.166016 160.634766 180.849609 C 177.568359 177.128906 189.990234 164.736328 189.990234 150 C 189.990234 143.994141 187.939453 138.398438 184.365234 133.59375 C 185.332031 115.722656 178.564453 97.998047 178.564453 97.998047 C 171.796875 102.802734 165.585938 114.638672 163.125 119.765625 Z M 163.125 119.765625 " transform="matrix(0.133333,0,0,0.133333,0,0)"/>
<path style="fill-rule:evenodd;fill:rgb(52.156866%,84.705883%,22.352941%);fill-opacity:1;stroke-width:8;stroke-linecap:round;stroke-linejoin:round;stroke:rgb(0%,0%,0%);stroke-opacity:1;stroke-miterlimit:10;" d="M 277.998047 69.990234 C 277.998047 47.900391 260.097656 30 238.007812 30 C 215.917969 30 197.988281 47.900391 197.988281 69.990234 C 197.988281 92.080078 215.917969 110.009766 238.007812 110.009766 C 260.097656 110.009766 277.998047 92.080078 277.998047 69.990234 Z M 277.998047 69.990234 " transform="matrix(0.133333,0,0,0.133333,0,0)"/>
<path style="fill:none;stroke-width:8;stroke-linecap:round;stroke-linejoin:round;stroke:rgb(0%,0%,0%);stroke-opacity:1;stroke-miterlimit:10;" d="M 254.003906 50.009766 L 235.605469 90 L 217.998047 75.732422 " transform="matrix(0.133333,0,0,0.133333,0,0)"/>
</g>
</svg>
