<?xml version="1.0" encoding="UTF-8"?>
<svg xmlns="http://www.w3.org/2000/svg" xmlns:xlink="http://www.w3.org/1999/xlink" width="16px" height="16px" viewBox="0 0 16 16" version="1.1">
<g id="surface1">
<path style="fill-rule:evenodd;fill:rgb(100%,86.666667%,58.431375%);fill-opacity:1;stroke-width:8;stroke-linecap:round;stroke-linejoin:round;stroke:rgb(0%,0%,0%);stroke-opacity:1;stroke-miterlimit:10;" d="M 269.970703 157.983398 C 269.970703 91.699219 216.28418 38.012695 150 38.012695 C 83.71582 38.012695 30.029297 91.699219 30.029297 157.983398 C 30.029297 224.267578 83.71582 278.027344 150 278.027344 C 216.28418 278.027344 269.970703 224.267578 269.970703 157.983398 Z M 269.970703 157.983398 " transform="matrix(0.0533333,0,0,0.0533333,0,0)"/>
<path style="fill-rule:evenodd;fill:rgb(60.000002%,47.058824%,26.274511%);fill-opacity:1;stroke-width:8;stroke-linecap:round;stroke-linejoin:round;stroke:rgb(0%,0%,0%);stroke-opacity:1;stroke-miterlimit:10;" d="M 163.110352 119.750977 C 159.008789 118.652344 154.614258 117.993164 150 117.993164 C 144.873047 117.993164 140.039062 118.798828 135.498047 120.19043 C 133.154297 115.283203 126.855469 102.905273 119.897461 97.998047 C 119.897461 97.998047 112.573242 117.114258 114.257812 135.644531 C 111.547852 139.96582 110.009766 144.873047 110.009766 150 C 110.009766 164.72168 122.460938 177.099609 139.379883 180.834961 C 122.460938 190.136719 110.009766 221.191406 110.009766 258.032227 C 110.009766 262.573242 110.15625 267.041016 110.522461 271.362305 C 122.900391 275.683594 136.157227 278.027344 150 278.027344 C 163.842773 278.027344 177.099609 275.683594 189.477539 271.362305 C 189.84375 267.041016 189.990234 262.573242 189.990234 258.032227 C 189.990234 221.191406 177.539062 190.136719 160.620117 180.834961 C 177.539062 177.099609 189.990234 164.72168 189.990234 150 C 189.990234 143.994141 187.939453 138.427734 184.350586 133.59375 C 185.302734 115.722656 178.564453 97.998047 178.564453 97.998047 C 171.826172 102.832031 165.600586 114.624023 163.110352 119.750977 Z M 163.110352 119.750977 " transform="matrix(0.0533333,0,0,0.0533333,0,0)"/>
<path style="fill-rule:evenodd;fill:rgb(52.156866%,84.705883%,22.352941%);fill-opacity:1;stroke-width:8;stroke-linecap:round;stroke-linejoin:round;stroke:rgb(0%,0%,0%);stroke-opacity:1;stroke-miterlimit:10;" d="M 278.027344 70.019531 C 278.027344 47.900391 260.083008 30.029297 237.963867 30.029297 C 215.917969 30.029297 197.973633 47.900391 197.973633 70.019531 C 197.973633 92.06543 215.917969 110.009766 237.963867 110.009766 C 260.083008 110.009766 278.027344 92.06543 278.027344 70.019531 Z M 278.027344 70.019531 " transform="matrix(0.0533333,0,0,0.0533333,0,0)"/>
<path style="fill:none;stroke-width:8;stroke-linecap:round;stroke-linejoin:round;stroke:rgb(0%,0%,0%);stroke-opacity:1;stroke-miterlimit:10;" d="M 254.003906 50.024414 L 235.620117 90.014648 L 217.96875 75.732422 " transform="matrix(0.0533333,0,0,0.0533333,0,0)"/>
</g>
</svg>
